<mxfile host="Electron" modified="2024-10-04T07:05:22.312Z" agent="Mozilla/5.0 (Windows NT 10.0; Win64; x64) AppleWebKit/537.36 (KHTML, like Gecko) draw.io/24.5.3 Chrome/124.0.6367.207 Electron/30.0.6 Safari/537.36" etag="pJJVNTxhpUW8kjUdcffi" version="24.5.3" type="device">
  <diagram id="C5RBs43oDa-KdzZeNtuy" name="Page-1">
    <mxGraphModel dx="880" dy="524" grid="0" gridSize="10" guides="1" tooltips="1" connect="1" arrows="1" fold="1" page="1" pageScale="1" pageWidth="827" pageHeight="1169" math="0" shadow="0">
      <root>
        <mxCell id="WIyWlLk6GJQsqaUBKTNV-0" />
        <mxCell id="WIyWlLk6GJQsqaUBKTNV-1" parent="WIyWlLk6GJQsqaUBKTNV-0" />
        <mxCell id="maa9K3MEsBfUMPPZZrCT-28" value="Flowchart kasir dengan member" style="swimlane;whiteSpace=wrap;html=1;" parent="WIyWlLk6GJQsqaUBKTNV-1" vertex="1">
          <mxGeometry x="200" y="55" width="360" height="830" as="geometry" />
        </mxCell>
        <mxCell id="maa9K3MEsBfUMPPZZrCT-29" style="edgeStyle=orthogonalEdgeStyle;rounded=0;orthogonalLoop=1;jettySize=auto;html=1;entryX=0.5;entryY=0;entryDx=0;entryDy=0;" parent="maa9K3MEsBfUMPPZZrCT-28" source="maa9K3MEsBfUMPPZZrCT-30" target="maa9K3MEsBfUMPPZZrCT-49" edge="1">
          <mxGeometry relative="1" as="geometry">
            <mxPoint x="180" y="120" as="targetPoint" />
          </mxGeometry>
        </mxCell>
        <mxCell id="maa9K3MEsBfUMPPZZrCT-30" value="Mulai" style="html=1;dashed=0;whiteSpace=wrap;shape=mxgraph.dfd.start" parent="maa9K3MEsBfUMPPZZrCT-28" vertex="1">
          <mxGeometry x="123" y="40" width="110" height="50" as="geometry" />
        </mxCell>
        <mxCell id="maa9K3MEsBfUMPPZZrCT-33" style="edgeStyle=orthogonalEdgeStyle;rounded=0;orthogonalLoop=1;jettySize=auto;html=1;" parent="maa9K3MEsBfUMPPZZrCT-28" source="maa9K3MEsBfUMPPZZrCT-35" edge="1">
          <mxGeometry relative="1" as="geometry">
            <mxPoint x="292.5" y="350" as="targetPoint" />
          </mxGeometry>
        </mxCell>
        <mxCell id="maa9K3MEsBfUMPPZZrCT-34" value="Bukan" style="edgeLabel;html=1;align=center;verticalAlign=middle;resizable=0;points=[];" parent="maa9K3MEsBfUMPPZZrCT-33" vertex="1" connectable="0">
          <mxGeometry x="-0.6236" y="-2" relative="1" as="geometry">
            <mxPoint as="offset" />
          </mxGeometry>
        </mxCell>
        <mxCell id="maa9K3MEsBfUMPPZZrCT-35" value="Member?" style="strokeWidth=2;html=1;shape=mxgraph.flowchart.decision;whiteSpace=wrap;" parent="maa9K3MEsBfUMPPZZrCT-28" vertex="1">
          <mxGeometry x="127.5" y="220" width="100" height="100" as="geometry" />
        </mxCell>
        <mxCell id="maa9K3MEsBfUMPPZZrCT-36" style="edgeStyle=orthogonalEdgeStyle;rounded=0;orthogonalLoop=1;jettySize=auto;html=1;entryX=0;entryY=0.5;entryDx=0;entryDy=0;exitX=0.5;exitY=1;exitDx=0;exitDy=0;" parent="maa9K3MEsBfUMPPZZrCT-28" source="maa9K3MEsBfUMPPZZrCT-46" target="maa9K3MEsBfUMPPZZrCT-42" edge="1">
          <mxGeometry relative="1" as="geometry">
            <mxPoint x="42.5" y="590" as="sourcePoint" />
          </mxGeometry>
        </mxCell>
        <mxCell id="maa9K3MEsBfUMPPZZrCT-38" value="Dapat potongan belanja 10% jika total belanja &amp;gt;= 500.0000&lt;div&gt;&lt;br&gt;&lt;/div&gt;" style="rounded=1;whiteSpace=wrap;html=1;" parent="maa9K3MEsBfUMPPZZrCT-28" vertex="1">
          <mxGeometry x="16" y="391" width="120" height="70" as="geometry" />
        </mxCell>
        <mxCell id="maa9K3MEsBfUMPPZZrCT-39" style="edgeStyle=orthogonalEdgeStyle;rounded=0;orthogonalLoop=1;jettySize=auto;html=1;entryX=1;entryY=0.5;entryDx=0;entryDy=0;exitX=0.5;exitY=1;exitDx=0;exitDy=0;" parent="maa9K3MEsBfUMPPZZrCT-28" source="maa9K3MEsBfUMPPZZrCT-47" target="maa9K3MEsBfUMPPZZrCT-42" edge="1">
          <mxGeometry relative="1" as="geometry">
            <mxPoint x="272.5" y="520" as="sourcePoint" />
          </mxGeometry>
        </mxCell>
        <mxCell id="maa9K3MEsBfUMPPZZrCT-40" value="Dapat potongan belanja 5% jika total belanja &amp;gt;= 500.000 ." style="rounded=1;whiteSpace=wrap;html=1;" parent="maa9K3MEsBfUMPPZZrCT-28" vertex="1">
          <mxGeometry x="222.5" y="350" width="120" height="60" as="geometry" />
        </mxCell>
        <mxCell id="maa9K3MEsBfUMPPZZrCT-41" style="edgeStyle=orthogonalEdgeStyle;rounded=0;orthogonalLoop=1;jettySize=auto;html=1;entryX=0.5;entryY=0;entryDx=0;entryDy=0;" parent="maa9K3MEsBfUMPPZZrCT-28" source="maa9K3MEsBfUMPPZZrCT-42" target="maa9K3MEsBfUMPPZZrCT-43" edge="1">
          <mxGeometry relative="1" as="geometry" />
        </mxCell>
        <mxCell id="maa9K3MEsBfUMPPZZrCT-42" value="Hitung total belanja" style="rounded=1;whiteSpace=wrap;html=1;" parent="maa9K3MEsBfUMPPZZrCT-28" vertex="1">
          <mxGeometry x="122.5" y="550" width="120" height="60" as="geometry" />
        </mxCell>
        <mxCell id="maa9K3MEsBfUMPPZZrCT-43" value="Tampilkan Total Belanja" style="rounded=1;whiteSpace=wrap;html=1;" parent="maa9K3MEsBfUMPPZZrCT-28" vertex="1">
          <mxGeometry x="122.5" y="640" width="120" height="60" as="geometry" />
        </mxCell>
        <mxCell id="maa9K3MEsBfUMPPZZrCT-44" value="Selesai" style="html=1;dashed=0;whiteSpace=wrap;shape=mxgraph.dfd.start" parent="maa9K3MEsBfUMPPZZrCT-28" vertex="1">
          <mxGeometry x="127.5" y="750" width="110" height="50" as="geometry" />
        </mxCell>
        <mxCell id="maa9K3MEsBfUMPPZZrCT-45" style="edgeStyle=orthogonalEdgeStyle;rounded=0;orthogonalLoop=1;jettySize=auto;html=1;entryX=0.5;entryY=0.5;entryDx=0;entryDy=-25;entryPerimeter=0;" parent="maa9K3MEsBfUMPPZZrCT-28" source="maa9K3MEsBfUMPPZZrCT-43" target="maa9K3MEsBfUMPPZZrCT-44" edge="1">
          <mxGeometry relative="1" as="geometry" />
        </mxCell>
        <mxCell id="maa9K3MEsBfUMPPZZrCT-46" value="&amp;nbsp;Dapat potongan 15% jika total belanja &amp;gt; 1.000.000&lt;div&gt;&lt;br&gt;&lt;/div&gt;" style="rounded=1;whiteSpace=wrap;html=1;" parent="maa9K3MEsBfUMPPZZrCT-28" vertex="1">
          <mxGeometry x="21" y="477" width="120" height="65" as="geometry" />
        </mxCell>
        <mxCell id="maa9K3MEsBfUMPPZZrCT-47" value="Dapat potongan 10% jika total belanja &amp;gt;= 1.000.000" style="rounded=1;whiteSpace=wrap;html=1;" parent="maa9K3MEsBfUMPPZZrCT-28" vertex="1">
          <mxGeometry x="227.5" y="450" width="120" height="70" as="geometry" />
        </mxCell>
        <mxCell id="maa9K3MEsBfUMPPZZrCT-48" style="edgeStyle=orthogonalEdgeStyle;rounded=0;orthogonalLoop=1;jettySize=auto;html=1;entryX=0.464;entryY=0.023;entryDx=0;entryDy=0;entryPerimeter=0;" parent="maa9K3MEsBfUMPPZZrCT-28" source="maa9K3MEsBfUMPPZZrCT-40" target="maa9K3MEsBfUMPPZZrCT-47" edge="1">
          <mxGeometry relative="1" as="geometry" />
        </mxCell>
        <mxCell id="maa9K3MEsBfUMPPZZrCT-49" value="Masukkan Total belanja &amp;amp; member&lt;div&gt;(jika ada)&lt;/div&gt;" style="shape=parallelogram;perimeter=parallelogramPerimeter;whiteSpace=wrap;html=1;fixedSize=1;" parent="maa9K3MEsBfUMPPZZrCT-28" vertex="1">
          <mxGeometry x="118" y="135" width="120" height="60" as="geometry" />
        </mxCell>
        <mxCell id="maa9K3MEsBfUMPPZZrCT-50" style="edgeStyle=orthogonalEdgeStyle;rounded=0;orthogonalLoop=1;jettySize=auto;html=1;entryX=0.5;entryY=0;entryDx=0;entryDy=0;entryPerimeter=0;" parent="maa9K3MEsBfUMPPZZrCT-28" source="maa9K3MEsBfUMPPZZrCT-49" target="maa9K3MEsBfUMPPZZrCT-35" edge="1">
          <mxGeometry relative="1" as="geometry" />
        </mxCell>
        <mxCell id="pxf6jqRZ_Q-RmDZ5NDM2-0" value="Dapat potongan belanja 10%&amp;nbsp;&lt;div&gt;&lt;br&gt;&lt;/div&gt;" style="rounded=1;whiteSpace=wrap;html=1;" parent="maa9K3MEsBfUMPPZZrCT-28" vertex="1">
          <mxGeometry x="16" y="322" width="120" height="47" as="geometry" />
        </mxCell>
        <mxCell id="pxf6jqRZ_Q-RmDZ5NDM2-1" style="edgeStyle=orthogonalEdgeStyle;rounded=0;orthogonalLoop=1;jettySize=auto;html=1;entryX=0.442;entryY=0.035;entryDx=0;entryDy=0;entryPerimeter=0;" parent="maa9K3MEsBfUMPPZZrCT-28" source="maa9K3MEsBfUMPPZZrCT-35" target="pxf6jqRZ_Q-RmDZ5NDM2-0" edge="1">
          <mxGeometry relative="1" as="geometry">
            <Array as="points">
              <mxPoint x="69" y="273" />
            </Array>
          </mxGeometry>
        </mxCell>
        <mxCell id="pxf6jqRZ_Q-RmDZ5NDM2-2" value="Ya" style="edgeLabel;html=1;align=center;verticalAlign=middle;resizable=0;points=[];" parent="pxf6jqRZ_Q-RmDZ5NDM2-1" vertex="1" connectable="0">
          <mxGeometry x="-0.3612" y="1" relative="1" as="geometry">
            <mxPoint as="offset" />
          </mxGeometry>
        </mxCell>
        <mxCell id="pxf6jqRZ_Q-RmDZ5NDM2-5" style="edgeStyle=orthogonalEdgeStyle;rounded=0;orthogonalLoop=1;jettySize=auto;html=1;entryX=0.465;entryY=0.035;entryDx=0;entryDy=0;entryPerimeter=0;" parent="maa9K3MEsBfUMPPZZrCT-28" source="pxf6jqRZ_Q-RmDZ5NDM2-0" target="maa9K3MEsBfUMPPZZrCT-38" edge="1">
          <mxGeometry relative="1" as="geometry">
            <Array as="points">
              <mxPoint x="72" y="376" />
              <mxPoint x="72" y="376" />
            </Array>
          </mxGeometry>
        </mxCell>
        <mxCell id="pxf6jqRZ_Q-RmDZ5NDM2-6" style="edgeStyle=orthogonalEdgeStyle;rounded=0;orthogonalLoop=1;jettySize=auto;html=1;exitX=0.5;exitY=1;exitDx=0;exitDy=0;entryX=0.452;entryY=0.015;entryDx=0;entryDy=0;entryPerimeter=0;" parent="maa9K3MEsBfUMPPZZrCT-28" source="maa9K3MEsBfUMPPZZrCT-38" target="maa9K3MEsBfUMPPZZrCT-46" edge="1">
          <mxGeometry relative="1" as="geometry" />
        </mxCell>
      </root>
    </mxGraphModel>
  </diagram>
</mxfile>
